<?xml version="1.0" encoding="UTF-8"?>
<svg width="24" height="24" viewBox="0 0 24 24" fill="none" xmlns="http://www.w3.org/2000/svg">
  <path d="M19 3H5C3.895 3 3 3.895 3 5V19C3 20.105 3.895 21 5 21H19C20.105 21 21 20.105 21 19V5C21 3.895 20.105 3 19 3ZM8.5 18H6V9H8.5V18ZM7.25 7.5C6.425 7.5 5.75 6.825 5.75 6C5.75 5.175 6.425 4.5 7.25 4.5C8.075 4.5 8.75 5.175 8.75 6C8.75 6.825 8.075 7.5 7.25 7.5ZM18 18H15.5V13.5C15.5 12.4 14.6 11.5 13.5 11.5C12.4 11.5 11.5 12.4 11.5 13.5V18H9V9H11.5V10.5C11.5 10.5 12.5 8.5 15 8.5C17.5 8.5 18 10.5 18 10.5V18Z" fill="currentColor"/>
</svg> 